P3
40 20
255
255 255 255
255 255 255
255 255 255
255 255 255
255 255 255
255 255 255
255 255 255
255 255 255
255 255 255
255 255 255
255 255 255
255 255 255
255 255 255
255 255 255
255 255 255
255 255 255
255 255 255
255 255 255
255 255 255
255 255 255
0 0 0
255 255 255
255 255 255
255 255 255
255 255 255
255 255 255
255 255 255
255 255 255
255 255 255
255 255 255
255 255 255
255 255 255
255 255 255
255 255 255
255 255 255
255 255 255
255 255 255
255 255 255
255 255 255
255 255 255
255 255 255
255 255 255
255 255 255
255 255 255
255 255 255
255 255 255
255 255 255
255 255 255
255 255 255
255 255 255
255 255 255
255 255 255
255 255 255
255 255 255
255 255 255
255 255 255
255 255 255
255 255 255
255 255 255
0 0 0
0 0 0
0 0 0
255 255 255
255 255 255
255 255 255
255 255 255
255 255 255
255 255 255
255 255 255
255 255 255
255 255 255
255 255 255
255 255 255
255 255 255
255 255 255
255 255 255
255 255 255
255 255 255
255 255 255
255 255 255
255 255 255
255 255 255
255 255 255
255 255 255
255 255 255
255 255 255
255 255 255
255 255 255
255 255 255
255 255 255
255 255 255
255 255 255
255 255 255
255 255 255
255 255 255
255 255 255
255 255 255
255 255 255
0 0 0
0 0 0
255 255 255
255 255 255
0 0 0
255 255 255
255 255 255
255 255 255
255 255 255
255 255 255
255 255 255
255 255 255
255 255 255
255 255 255
255 255 255
255 255 255
255 255 255
255 255 255
255 255 255
255 255 255
255 255 255
255 255 255
255 255 255
255 255 255
255 255 255
255 255 255
255 255 255
255 255 255
255 255 255
255 255 255
255 255 255
255 255 255
255 255 255
255 255 255
255 255 255
255 255 255
255 255 255
255 255 255
255 255 255
0 0 0
0 0 0
255 255 255
0 0 0
0 0 0
0 0 0
0 0 0
255 255 255
255 255 255
255 255 255
255 255 255
255 255 255
255 255 255
255 255 255
255 255 255
255 255 255
255 255 255
255 255 255
255 255 255
255 255 255
255 255 255
255 255 255
255 255 255
255 255 255
255 255 255
255 255 255
255 255 255
255 255 255
255 255 255
255 255 255
255 255 255
255 255 255
255 255 255
255 255 255
255 255 255
255 255 255
255 255 255
255 255 255
255 255 255
0 0 0
0 0 0
255 255 255
255 255 255
0 0 0
255 255 255
255 255 255
255 255 255
0 0 0
255 255 255
255 255 255
255 255 255
255 255 255
255 255 255
255 255 255
255 255 255
255 255 255
255 255 255
255 255 255
255 255 255
255 255 255
255 255 255
255 255 255
255 255 255
255 255 255
255 255 255
255 255 255
255 255 255
255 255 255
255 255 255
255 255 255
255 255 255
255 255 255
255 255 255
255 255 255
255 255 255
255 255 255
255 255 255
255 255 255
0 0 0
0 0 0
255 255 255
0 0 0
0 0 0
0 0 0
0 0 0
255 255 255
0 0 0
0 0 0
0 0 0
255 255 255
255 255 255
255 255 255
255 255 255
255 255 255
255 255 255
255 255 255
255 255 255
255 255 255
255 255 255
255 255 255
255 255 255
255 255 255
255 255 255
255 255 255
255 255 255
255 255 255
255 255 255
255 255 255
255 255 255
255 255 255
255 255 255
255 255 255
255 255 255
255 255 255
255 255 255
255 255 255
255 255 255
0 0 0
0 0 0
255 255 255
255 255 255
0 0 0
255 255 255
255 255 255
255 255 255
255 255 255
0 0 0
255 255 255
255 255 255
0 0 0
255 255 255
255 255 255
255 255 255
255 255 255
255 255 255
255 255 255
255 255 255
255 255 255
255 255 255
255 255 255
255 255 255
255 255 255
255 255 255
255 255 255
255 255 255
255 255 255
255 255 255
255 255 255
255 255 255
255 255 255
255 255 255
255 255 255
255 255 255
255 255 255
255 255 255
255 255 255
0 0 0
0 0 0
255 255 255
0 0 0
0 0 0
0 0 0
0 0 0
255 255 255
255 255 255
0 0 0
0 0 0
0 0 0
0 0 0
0 0 0
0 0 0
255 255 255
255 255 255
255 255 255
255 255 255
255 255 255
255 255 255
255 255 255
255 255 255
255 255 255
255 255 255
255 255 255
255 255 255
255 255 255
255 255 255
255 255 255
255 255 255
255 255 255
255 255 255
255 255 255
255 255 255
255 255 255
255 255 255
255 255 255
255 255 255
0 0 0
0 0 0
255 255 255
255 255 255
0 0 0
255 255 255
255 255 255
255 255 255
0 0 0
0 0 0
0 0 0
255 255 255
255 255 255
255 255 255
255 255 255
255 255 255
0 0 0
255 255 255
255 255 255
255 255 255
255 255 255
255 255 255
255 255 255
255 255 255
255 255 255
255 255 255
255 255 255
255 255 255
255 255 255
255 255 255
255 255 255
255 255 255
255 255 255
255 255 255
255 255 255
255 255 255
255 255 255
255 255 255
255 255 255
0 0 0
0 0 0
255 255 255
0 0 0
0 0 0
0 0 0
0 0 0
255 255 255
0 0 0
0 0 0
255 255 255
255 255 255
0 0 0
255 255 255
255 255 255
255 255 255
0 0 0
0 0 0
0 0 0
255 255 255
255 255 255
255 255 255
255 255 255
255 255 255
255 255 255
255 255 255
255 255 255
255 255 255
255 255 255
255 255 255
255 255 255
255 255 255
255 255 255
255 255 255
255 255 255
255 255 255
255 255 255
255 255 255
255 255 255
0 0 0
0 0 0
255 255 255
255 255 255
0 0 0
255 255 255
255 255 255
255 255 255
255 255 255
0 0 0
255 255 255
0 0 0
0 0 0
0 0 0
0 0 0
255 255 255
0 0 0
0 0 0
255 255 255
255 255 255
0 0 0
255 255 255
255 255 255
255 255 255
255 255 255
255 255 255
255 255 255
255 255 255
255 255 255
255 255 255
255 255 255
255 255 255
255 255 255
255 255 255
255 255 255
255 255 255
255 255 255
255 255 255
255 255 255
0 0 0
0 0 0
255 255 255
0 0 0
0 0 0
0 0 0
0 0 0
255 255 255
255 255 255
0 0 0
0 0 0
255 255 255
0 0 0
255 255 255
255 255 255
255 255 255
255 255 255
0 0 0
255 255 255
0 0 0
0 0 0
0 0 0
0 0 0
255 255 255
255 255 255
255 255 255
255 255 255
255 255 255
255 255 255
255 255 255
255 255 255
255 255 255
255 255 255
255 255 255
255 255 255
255 255 255
255 255 255
255 255 255
255 255 255
0 0 0
0 0 0
255 255 255
255 255 255
0 0 0
255 255 255
255 255 255
255 255 255
0 0 0
0 0 0
0 0 0
255 255 255
255 255 255
0 0 0
0 0 0
255 255 255
255 255 255
0 0 0
0 0 0
255 255 255
0 0 0
255 255 255
255 255 255
255 255 255
0 0 0
255 255 255
255 255 255
255 255 255
255 255 255
255 255 255
255 255 255
255 255 255
255 255 255
255 255 255
255 255 255
255 255 255
255 255 255
255 255 255
255 255 255
0 0 0
0 0 0
255 255 255
0 0 0
0 0 0
0 0 0
0 0 0
255 255 255
0 0 0
0 0 0
255 255 255
255 255 255
0 0 0
0 0 0
0 0 0
255 255 255
0 0 0
0 0 0
0 0 0
255 255 255
255 255 255
0 0 0
0 0 0
255 255 255
0 0 0
0 0 0
0 0 0
255 255 255
255 255 255
255 255 255
255 255 255
255 255 255
255 255 255
255 255 255
255 255 255
255 255 255
255 255 255
255 255 255
255 255 255
0 0 0
0 0 0
255 255 255
255 255 255
0 0 0
255 255 255
255 255 255
255 255 255
255 255 255
0 0 0
255 255 255
0 0 0
0 0 0
0 0 0
255 255 255
255 255 255
255 255 255
0 0 0
255 255 255
255 255 255
0 0 0
0 0 0
0 0 0
255 255 255
255 255 255
0 0 0
255 255 255
255 255 255
0 0 0
255 255 255
255 255 255
255 255 255
255 255 255
255 255 255
255 255 255
255 255 255
255 255 255
255 255 255
255 255 255
0 0 0
0 0 0
255 255 255
0 0 0
0 0 0
0 0 0
0 0 0
255 255 255
255 255 255
0 0 0
0 0 0
255 255 255
0 0 0
255 255 255
255 255 255
0 0 0
255 255 255
0 0 0
0 0 0
0 0 0
0 0 0
0 0 0
255 255 255
255 255 255
0 0 0
0 0 0
0 0 0
0 0 0
0 0 0
0 0 0
0 0 0
255 255 255
255 255 255
255 255 255
255 255 255
255 255 255
255 255 255
255 255 255
255 255 255
0 0 0
0 0 0
255 255 255
255 255 255
0 0 0
255 255 255
255 255 255
255 255 255
0 0 0
0 0 0
0 0 0
255 255 255
255 255 255
0 0 0
0 0 0
0 0 0
0 0 0
255 255 255
0 0 0
255 255 255
255 255 255
255 255 255
255 255 255
0 0 0
0 0 0
0 0 0
255 255 255
255 255 255
255 255 255
255 255 255
255 255 255
255 255 255
0 0 0
255 255 255
255 255 255
255 255 255
255 255 255
255 255 255
255 255 255
0 0 0
0 0 0
255 255 255
0 0 0
0 0 0
0 0 0
0 0 0
255 255 255
0 0 0
0 0 0
255 255 255
255 255 255
0 0 0
0 0 0
0 0 0
255 255 255
255 255 255
255 255 255
255 255 255
0 0 0
0 0 0
255 255 255
255 255 255
0 0 0
0 0 0
255 255 255
255 255 255
0 0 0
255 255 255
255 255 255
255 255 255
255 255 255
0 0 0
0 0 0
0 0 0
255 255 255
255 255 255
255 255 255
255 255 255
0 0 0
0 0 0
255 255 255
255 255 255
0 0 0
255 255 255
255 255 255
255 255 255
255 255 255
0 0 0
255 255 255
0 0 0
0 0 0
0 0 0
255 255 255
255 255 255
0 0 0
255 255 255
255 255 255
0 0 0
0 0 0
255 255 255
0 0 0
0 0 0
0 0 0
255 255 255
0 0 0
0 0 0
0 0 0
0 0 0
255 255 255
255 255 255
0 0 0
0 0 0
255 255 255
255 255 255
0 0 0
255 255 255
255 255 255
0 0 0
0 0 0
255 255 255
0 0 0
0 0 0
0 0 0
0 0 0
255 255 255
255 255 255
0 0 0
0 0 0
255 255 255
0 0 0
255 255 255
255 255 255
0 0 0
0 0 0
0 0 0
0 0 0
0 0 0
0 0 0
255 255 255
255 255 255
0 0 0
255 255 255
255 255 255
255 255 255
0 0 0
255 255 255
255 255 255
255 255 255
0 0 0
0 0 0
0 0 0
255 255 255
0 0 0
0 0 0
0 0 0
0 0 0
